<svg xmlns="http://www.w3.org/2000/svg" viewBox="0 0 375 528"><defs><style>.cls-1,.cls-2{fill:#fff;}.cls-1,.cls-2,.cls-3{stroke:#000;}.cls-1,.cls-2,.cls-3,.cls-6,.cls-7,.cls-8{stroke-miterlimit:10;}.cls-2,.cls-6{stroke-width:3px;}.cls-3{fill:#010a01;}.cls-4{fill:#001300;}.cls-5{fill:#f7f9f7;}.cls-6,.cls-7{fill:none;}.cls-6,.cls-7,.cls-8{stroke:#000700;}.cls-8{fill:#dd2853;}</style></defs><g id="Layer_4" data-name="Layer 4"><path class="cls-1" d="M374.5,249c-3.65-24.47-32.81-48.52-54.71-64.59C359.56,86.53,312.38,12.9,194.16.5,78.13,17.34,32.43,91.93,67,189.72-5.16,229-6.49,273.94,7.38,344.88c6.91,50,25.25,143.48,77.2,171.91,65.12,13.63,132.25,16.15,196.87-3.64,56.39-29.82,78-135.69,85.59-181.56S374,288,374.5,249Zm-85.64-77.36c-20.81,28.8-55.32,45.75-94,47.43-40,1.73-72.49-14.22-89.51-46.27-7.58-14.28-6.46-27.24-6.15-36.51a92.53,92.53,0,0,1,2.53-20.07,76.28,76.28,0,0,1,5.35-14.78c2.78-5.76,13.3-26.74,39.88-40.34A106.84,106.84,0,0,1,194.5,50c56.89-.31,97.6,36.79,104.58,84.18C301.11,147.87,297.35,159.91,288.86,171.65Z"/><path class="cls-1" d="M355.5,250.76c-3.28-23-29.48-45.66-49.15-60.79,35.73-92.13-6.66-161.43-112.86-173.09C89.25,32.73,48.19,102.92,79.22,195c-64.8,37-66,79.27-53.54,146C31.89,388,48.37,476,95,502.8c58.5,12.82,118.81,15.19,176.86-3.44C322.56,471.3,342,371.65,348.79,328.48S355,287.43,355.5,250.76ZM278.56,178c-18.7,27.1-49.7,43.06-84.4,44.63-35.95,1.64-65.12-13.38-80.42-43.54-6.81-13.44-5.8-25.64-5.52-34.37a90.93,90.93,0,0,1,2.27-18.89,74.24,74.24,0,0,1,4.81-13.91,81.69,81.69,0,0,1,35.82-38,92.65,92.65,0,0,1,42.67-10.49c51.11-.29,87.68,34.63,94,79.23C289.56,155.58,286.19,166.91,278.56,178Z"/><path class="cls-1" d="M267.27,184.76c-15.95,24.91-42.4,39.58-72,41-30.67,1.51-55.55-12.3-68.59-40-4.67-9.92-5.87-20.6-4.72-31.6,4.37-41.71,29.4-74.44,73-74.7s74.79,31.84,80.14,72.84C276.65,164.18,273.77,174.6,267.27,184.76Z"/><path class="cls-2" d="M332.9,251.69c-2.8-21.17-25.15-42-41.93-55.89,30.48-84.71-5.68-148.42-96.27-159.14C105.78,51.23,70.75,115.77,97.22,200.39c-55.27,34-56.3,72.88-45.67,134.26,5.3,43.23,19.36,124.16,59.17,148.76,49.9,11.79,101.34,14,150.87-3.15,43.21-25.8,59.76-117.42,65.59-157.11S332.49,285.41,332.9,251.69Zm-65.63-66.93c-15.95,24.91-42.4,39.58-72,41-30.67,1.51-55.55-12.3-68.59-40-5.82-12.36-5-23.57-4.72-31.6a89.8,89.8,0,0,1,1.94-17.36A71.54,71.54,0,0,1,128,124a73.62,73.62,0,0,1,30.56-34.9A74.62,74.62,0,0,1,195,79.46c43.59-.26,74.79,31.84,80.14,72.84C276.65,164.18,273.77,174.6,267.27,184.76Z"/><path class="cls-3" d="M198.53,122.28s.43,35,75.45,21.35c0,0-9.8-63.26-84.39-65.95,0,0-58.66-1.36-67.63,74.48C122,152.16,191.07,151.56,198.53,122.28Z"/><polyline class="cls-1" points="48.36 254.88 195.97 325.67 329.22 244.53"/><circle class="cls-1" cx="196" cy="245" r="14"/><path class="cls-1" d="M187.59,233.81s-39.7-9.48-54.65,30.86-5.55,20.43-5.55,20.43S186,283,196,259C196,259,174.18,254.62,187.59,233.81Z"/><path class="cls-1" d="M202.93,232.84s43.07-26,60.07,28.59c0,0-30,20.57-67-2.43,0,0,14.56-4.51,14.29-14C210.19,241.59,208.19,237.55,202.93,232.84Z"/><path class="cls-1" d="M182,245s-26.78.33-32.39,19.67"/><path class="cls-1" d="M211.06,244.28S237.33,231,247.17,255"/><path class="cls-4" d="M118.26,295.28s-15.52-14.95-24.91-17.8l-2.1-.63a13.54,13.54,0,0,0-5.91,0,13.69,13.69,0,0,0-1.76,26.2,13.68,13.68,0,0,0,18.1,20.44l1.63-1.46c7.28-6.59,15-26.72,15-26.72Z"/><path class="cls-4" d="M124.86,340.89S106.78,329.18,97,328.17L94.83,328a13.68,13.68,0,0,0-2.53,27.18A13.68,13.68,0,0,0,114,371.75l1.33-1.74c5.89-7.86,9.59-29.08,9.59-29.08Z"/><path class="cls-4" d="M138,380.6s-21.18-4-30.59-1.17l-2.1.63a13.66,13.66,0,0,0-4.61,22.61,13.64,13.64,0,0,0,12.61,3.49,13.69,13.69,0,0,0,26.36,7.13l.56-2.12c2.46-9.51-2.2-30.55-2.2-30.55Z"/><path class="cls-4" d="M168.25,406.35s-19.84,6.77-27.34,14.23l-1.67,1.68a18.5,18.5,0,0,0-3.41,5.66c-3.05,8-.39,16.41,5.95,18.83,4,1.55,8.59.27,12.15-2.92.53,4.75,3.06,8.74,7.1,10.29,6.34,2.42,13.94-2.08,17-10.05a18.53,18.53,0,0,0,1.25-6.5l-.12-2.36c-.61-10.56-10.87-28.85-10.87-28.85Z"/><path class="cls-4" d="M206.27,415.54s-16.44,13.92-20.24,23l-.83,2a13.68,13.68,0,0,0,25.29,10.27,13.68,13.68,0,0,0,24.13-10.35,13.49,13.49,0,0,0-2-5.57l-1.29-1.78c-5.82-7.91-25.06-17.59-25.06-17.59Z"/><path class="cls-4" d="M238,403s-4.34,19.91-1.91,29.51l.55,2.15a16,16,0,0,0,3,5.33c5.09,6,13.43,7.29,18.63,2.88A12,12,0,0,0,262,431.21a12,12,0,0,0,12.11-1.72c5.2-4.41,5.28-12.85.19-18.86a16.08,16.08,0,0,0-4.77-3.82l-2-.9c-9.08-4-29.43-2.92-29.43-2.92Z"/><path class="cls-4" d="M252.5,369s5.62,19.75,12.33,27.09l1.5,1.64a16.29,16.29,0,0,0,5.19,3.28c7.35,2.87,15.34,0,17.85-6.41a12.14,12.14,0,0,0-2.3-12.11,12.16,12.16,0,0,0,9.9-7.36c2.5-6.41-1.43-13.93-8.79-16.81a16.2,16.2,0,0,0-6-1.1l-2.22.18C270,358.24,252.51,369,252.51,369Z"/><path class="cls-4" d="M262.64,290s10,17.73,18,23.07l1.79,1.18a14.16,14.16,0,0,0,5.57,1.79c7.48.8,14.14-4.17,14.88-11.1a12.41,12.41,0,0,0-5.06-11.2,12.41,12.41,0,0,0,7.32-9.87c.74-6.93-4.72-13.2-12.19-14a14.29,14.29,0,0,0-5.83.57l-2,.77c-8.92,3.54-22.44,18.75-22.44,18.75Z"/><path class="cls-4" d="M266.43,334.1s8.26,14.43,14.84,18.78l1.47,1a12.12,12.12,0,0,0,4.6,1.46c6.16.66,11.65-3.37,12.25-9a10,10,0,0,0-4.19-9.11,10.08,10.08,0,0,0,6-8c.6-5.64-3.91-10.74-10.07-11.4a12,12,0,0,0-4.81.46l-1.64.63c-7.35,2.86-18.47,15.21-18.47,15.21Z"/><path class="cls-1" d="M97.58,276.17S82.47,440.9,189.88,438.34c0,0,110.93,15.21,87.67-162.17l-79.29,48.29Z"/><path class="cls-4" d="M118,340.22a8.54,8.54,0,0,1,8.38-8.68c4.63,0,13.07,3.89,13.07,8.68s-8.44,8.68-13.07,8.68A8.53,8.53,0,0,1,118,340.22Z"/><path class="cls-4" d="M133.65,318.9c4.42-2,9.57-.26,11.5,3.82s1.88,13.14-2.54,15.11-11.53-3.87-13.46-8S129.23,320.88,133.65,318.9Z"/><path class="cls-4" d="M160,330.32a8.29,8.29,0,0,1-5,10.78c-4.36,1.49-13.63.61-15.25-3.85s5-10.8,9.39-12.29A8.65,8.65,0,0,1,160,330.32Z"/><path class="cls-4" d="M146.91,357.08c-4.64,1.43-9.53-.88-10.93-5.16s-.2-13.26,4.43-14.7,11,5.23,12.36,9.51S151.55,355.65,146.91,357.08Z"/><ellipse class="cls-5" cx="139.4" cy="337.62" rx="6.88" ry="6.68"/><path class="cls-4" d="M175.84,360.81a6.61,6.61,0,0,1,6.83-6.37c3.76,0,10.64,2.85,10.64,6.37s-6.88,6.38-10.64,6.38A6.61,6.61,0,0,1,175.84,360.81Z"/><path class="cls-4" d="M188.63,345.16c3.6-1.45,7.79-.19,9.37,2.81s1.53,9.64-2.07,11.09-9.39-2.85-11-5.84S185,346.61,188.63,345.16Z"/><path class="cls-4" d="M210.07,353.54a5.94,5.94,0,0,1-4,7.92c-3.55,1.09-11.1.45-12.42-2.83s4.09-7.92,7.65-9A7.26,7.26,0,0,1,210.07,353.54Z"/><path class="cls-4" d="M199.43,373.19c-3.78,1.05-7.76-.64-8.91-3.79s-.16-9.73,3.62-10.79,8.92,3.84,10.06,7S203.21,372.14,199.43,373.19Z"/><ellipse class="cls-5" cx="193.31" cy="358.9" rx="5.6" ry="4.91"/><path class="cls-4" d="M139.89,402a6.6,6.6,0,0,1,6.82-6.37c3.77,0,10.65,2.85,10.65,6.37s-6.88,6.38-10.65,6.38A6.61,6.61,0,0,1,139.89,402Z"/><path class="cls-4" d="M152.68,386.38c3.6-1.45,7.79-.19,9.36,2.8s1.53,9.65-2.07,11.1-9.39-2.85-11-5.85S149.08,387.83,152.68,386.38Z"/><path class="cls-4" d="M174.12,394.76a5.94,5.94,0,0,1-4.05,7.91c-3.55,1.1-11.11.45-12.43-2.82s4.1-7.93,7.65-9A7.28,7.28,0,0,1,174.12,394.76Z"/><path class="cls-4" d="M163.48,414.41c-3.78,1-7.77-.65-8.91-3.79s-.16-9.74,3.61-10.79,8.92,3.84,10.07,7S167.25,413.36,163.48,414.41Z"/><ellipse class="cls-5" cx="157.36" cy="400.12" rx="5.6" ry="4.91"/><path class="cls-4" d="M223.89,333.84c0-4.34,3.05-7.87,6.81-7.87s10.63,3.53,10.63,7.87-6.86,7.87-10.63,7.87S223.89,338.19,223.89,333.84Z"/><path class="cls-4" d="M236.66,314.52A6.77,6.77,0,0,1,246,318c1.57,3.7,1.52,11.91-2.07,13.7s-9.38-3.52-10.95-7.22A7.81,7.81,0,0,1,236.66,314.52Z"/><path class="cls-4" d="M258.07,324.86c1.32,4-.49,8.42-4,9.77s-11.09.56-12.41-3.48,4.09-9.79,7.64-11.14S256.75,320.83,258.07,324.86Z"/><path class="cls-4" d="M247.44,349.12a6.88,6.88,0,0,1-8.89-4.68c-1.14-3.88-.16-12,3.61-13.31s8.91,4.73,10.05,8.61A7.69,7.69,0,0,1,247.44,349.12Z"/><ellipse class="cls-5" cx="241.33" cy="331.48" rx="5.6" ry="6.06"/><path class="cls-4" d="M214.91,392.18a6,6,0,0,1,5.83-6.19c3.21,0,9.08,2.77,9.08,6.19s-5.87,6.19-9.08,6.19A6,6,0,0,1,214.91,392.18Z"/><path class="cls-4" d="M225.83,377a6,6,0,0,1,8,2.73c1.34,2.91,1.3,9.36-1.77,10.77s-8-2.76-9.36-5.68A5.94,5.94,0,0,1,225.83,377Z"/><path class="cls-4" d="M244.13,385.12a6,6,0,0,1-3.45,7.69c-3,1.06-9.48.43-10.61-2.74s3.5-7.7,6.53-8.77A6,6,0,0,1,244.13,385.12Z"/><path class="cls-4" d="M235.05,404.2a6,6,0,0,1-7.6-3.68c-1-3-.14-9.45,3.08-10.47s7.62,3.72,8.59,6.77A6,6,0,0,1,235.05,404.2Z"/><ellipse class="cls-5" cx="229.82" cy="390.33" rx="4.78" ry="4.77"/><path class="cls-4" d="M213.5,362s6.73-5.15,12.58-5.25c6.28-.1,13.42,5.25,13.42,5.25s-7.42,5.05-13.61,4.91C220.36,366.77,213.5,362,213.5,362Z"/><path class="cls-4" d="M211.12,352.78s-1.6-5.91-.05-9.82c1.65-4.21,7.19-7.49,7.19-7.49s1.34,6.33-.46,10.42C216.19,349.53,211.12,352.78,211.12,352.78Z"/><path class="cls-4" d="M178.29,401.25s5.76,6.23,6.39,12c.68,6.24-4,13.85-4,13.85s-5.72-6.92-6.14-13.1C174.17,408.51,178.29,401.25,178.29,401.25Z"/><path class="cls-4" d="M181.22,395.85s-1.6-5.9-.05-9.82c1.65-4.21,7.2-7.49,7.2-7.49s1.33,6.33-.47,10.42C186.29,392.6,181.22,395.85,181.22,395.85Z"/><path class="cls-4" d="M125.22,372.85s-1.6-5.9,0-9.82c1.65-4.21,7.2-7.49,7.2-7.49s1.33,6.33-.47,10.42C130.29,369.6,125.22,372.85,125.22,372.85Z"/><path class="cls-4" d="M142.69,382.45s-.1-6.23,1.75-10.83c2-4.95,6.68-9.58,6.68-9.58s-.17,6.75-2.24,11.58C147,377.94,142.69,382.45,142.69,382.45Z"/><path class="cls-4" d="M251.21,307.72s6.29-6.32,11.75-6.43c5.87-.13,12.54,6.43,12.54,6.43s-6.93,6.19-12.71,6C257.62,313.58,251.21,307.72,251.21,307.72Z"/><path class="cls-6" d="M215.09,164.77c10.49,7.21,22.59,7.44,29.11,1.68a16.46,16.46,0,0,0,5.14-10"/><line class="cls-7" x1="220.26" y1="168.62" x2="218.06" y2="179.5"/><line class="cls-7" x1="226.9" y1="170.07" x2="226.5" y2="182.5"/><line class="cls-7" x1="243.92" y1="167.27" x2="251.9" y2="178.39"/><path class="cls-6" d="M182,201.72c9.7,7.85,21.24,9.68,28.6,4.87a16.81,16.81,0,0,0,6-7.26"/><line class="cls-7" x1="234.52" y1="170.48" x2="236.73" y2="182.72"/><path class="cls-6" d="M140.56,164.75c8.55,9.43,20.27,12.45,27.94,8.34a16.46,16.46,0,0,0,7.32-8.59"/><line class="cls-7" x1="144.7" y1="169.68" x2="140.05" y2="179.76"/><line class="cls-7" x1="150.83" y1="172.62" x2="147.57" y2="184.63"/><line class="cls-7" x1="168.04" y1="173.83" x2="173.24" y2="186.48"/><line class="cls-7" x1="158.15" y1="174.78" x2="157.48" y2="187.2"/><circle class="cls-8" cx="151.5" cy="194.5" r="7.5"/><circle class="cls-8" cx="244.5" cy="190.5" r="7.5"/></g></svg>
